{"title":"Four.Stories.Of.St.Julian.2010.DVDRip.XviD-SDTeam","uid":5799788,"size":365356166,"categoryP":"video","categoryS":"movies","magnet":"?xt=urn:btih:f45f6eaf279e262bf4100cf3c3bf8cde412cafce&amp;dn=Four.Stories.Of.St.Julian.2010.DVDRip.XviD-SDTeam&amp;tr=udp%3A%2F%2Ftracker.openbittorrent.com%3A80&amp;tr=udp%3A%2F%2Fopen.demonii.com%3A1337&amp;tr=udp%3A%2F%2Ftracker.coppersurfer.tk%3A6969&amp;tr=udp%3A%2F%2Fexodus.desync.com%3A6969","seeders":0,"leechers":0,"uploader":"bg2k9","files":29,"time":1283214734,"description":"GREETZ: UnDeaD - BadGirl2k9 - virusofsaten - foxyb - WICCYWOLF - lizzymwah1\n\nVISIT http://www.seedboxworld.biz/ for all ur seedbox needs!\n\nRELEASE NAME: Four.Stories.Of.St.Julian.2010.DVDRip.XviD-SDTeam\nRELEASED BY: UnDeaD &amp; BadGirl2k9\nSIZE: 348 MB\n\nLANGUAGE: English\nIMDb: http://www.imdb.com/title/tt1059790/\n\nPLOT: Set entirely in one location, the film follows four \nstrangers who become trapped in the elevator of St. Julian-a \ndecrepit, inner-city building. An assassin, a religious zealot, \na mother, and a thief...just moments after being confined, it \nbecomes clear that one of them is mortally wounded. As the minutes \ntick by, a battle for survival ensues where each of them is forced \nto examine their sordid ties to St. Julian-the building, as well \nas the legacy of the religious figure.\n\nSCREENS: &lt;a href=&quot;\nhttp://i658.photobucket.com/albums/uu309/BadGirl2k9/screens/vlcsnap-2010-08-30-23h08m11s64.png&quot; rel=&quot;nofollow&quot; target=&quot;_NEW&quot;&gt;\nhttp://i658.photobucket.com/albums/uu309/BadGirl2k9/screens/vlcsnap-2010-08-30-23h08m11s64.png&lt;/a&gt; &lt;a href=&quot;\nhttp://i658.photobucket.com/albums/uu309/BadGirl2k9/screens/vlcsnap-2010-08-30-23h08m20s126.png&quot; rel=&quot;nofollow&quot; target=&quot;_NEW&quot;&gt;\nhttp://i658.photobucket.com/albums/uu309/BadGirl2k9/screens/vlcsnap-2010-08-30-23h08m20s126.png&lt;/a&gt; &lt;a href=&quot;\nhttp://i658.photobucket.com/albums/uu309/BadGirl2k9/screens/vlcsnap-2010-08-30-23h08m29s239.png&quot; rel=&quot;nofollow&quot; target=&quot;_NEW&quot;&gt;\nhttp://i658.photobucket.com/albums/uu309/BadGirl2k9/screens/vlcsnap-2010-08-30-23h08m29s239.png&lt;/a&gt;\n\nGeneral\nFormat                           : AVI\nFormat/Info                      : Audio Video Interleave\nFile size                        : 348 MiB\nDuration                         : 1h 25mn\nOverall bit rate                 : 572 Kbps\nWriting application              : MEncoder SVN-r22963\nWriting library                  : MPlayer\n\nVideo\nID                               : 0\nFormat                           : MPEG-4 Visual\nFormat profile                   : Simple@L3\nFormat settings, BVOP            : No\nFormat settings, QPel            : No\nFormat settings, GMC             : No warppoints\nFormat settings, Matrix          : Default (H.263)\nCodec ID                         : XVID\nCodec ID/Hint                    : XviD\nDuration                         : 1h 25mn\nBit rate                         : 496 Kbps\nWidth                            : 512 pixels\nHeight                           : 288 pixels\nDisplay aspect ratio             : 16:9\nFrame rate                       : 20.000 fps\nResolution                       : 8 bits\nColorimetry                      : 4:2:0\nScan type                        : Progressive\nBits/(Pixel*Frame)               : 0.168\nStream size                      : 302 MiB (87%)\nWriting library                  : XviD 1.1.2 (UTC 2006-11-01)\n\nAudio\nID                               : 1\nFormat                           : MPEG Audio\nFormat version                   : Version 1\nFormat profile                   : Layer 3\nCodec ID                         : 55\nCodec ID/Hint                    : MP3\nDuration                         : 1h 25mn\nBit rate mode                    : Constant\nBit rate                         : 64.0 Kbps\nChannel(s)                       : 2 channels\nSampling rate                    : 44.1 KHz\nStream size                      : 39.0 MiB (11%)\nAlignment                        : Aligned on interleaves\nInterleave, duration             : 26 ms (0.52 video frame)\nInterleave, preload duration     : 522 ms\n\nGROUP NOTE: Big thanks to seedboxworld.biz for the seedbox!\n\n","torrent":{"xt":"urn:btih:f45f6eaf279e262bf4100cf3c3bf8cde412cafce","amp;dn":"Four.Stories.Of.St.Julian.2010.DVDRip.XviD-SDTeam","amp;tr":["udp%3A%2F%2Ftracker.openbittorrent.com%3A80","udp%3A%2F%2Fopen.demonii.com%3A1337","udp%3A%2F%2Ftracker.coppersurfer.tk%3A6969","udp%3A%2F%2Fexodus.desync.com%3A6969"],"infoHash":"f45f6eaf279e262bf4100cf3c3bf8cde412cafce","infoHashBuffer":{"type":"Buffer","data":[244,95,110,175,39,158,38,43,244,16,12,243,195,191,140,222,65,44,175,206]},"announce":[],"urlList":[]}}